<?xml version="1.0" standalone="no"?>
<!DOCTYPE svg PUBLIC "-//W3C//DTD SVG 20010904//EN"
 "http://www.w3.org/TR/2001/REC-SVG-20010904/DTD/svg10.dtd">
<svg version="1.0" xmlns="http://www.w3.org/2000/svg"
 width="16.000000pt" height="16.000000pt" viewBox="0 0 16.000000 16.000000"
 preserveAspectRatio="xMidYMid meet">
<metadata>
Created by potrace 1.11, written by Peter Selinger 2001-2013
</metadata>
<g transform="translate(0.000000,16.000000) scale(0.000371,-0.000371)"
fill="#000000" stroke="none">
<path d="M12325 40644 c-456 -234 -833 -428 -838 -433 -5 -5 437 -1097 983
-2428 l991 -2419 -6732 -16283 c-3702 -8956 -6727 -16287 -6722 -16291 21 -20
1696 -721 1703 -714 6 6 12525 30201 12742 30733 13 33 41 -36 3045 -7391
l3032 -7425 -3110 -7593 c-1710 -4177 -3108 -7599 -3106 -7605 5 -12 1614
-718 1640 -719 15 -1 538 1240 2826 6697 1544 3683 2810 6699 2813 6702 2 3
1268 -3011 2813 -6696 1545 -3685 2813 -6703 2818 -6706 7 -4 1491 719 1511
737 4 5 -1352 3412 -3014 7572 -1663 4159 -3025 7573 -3027 7585 -5 22 5866
14875 5877 14868 3 -2 2919 -6925 6480 -15384 3561 -8459 6479 -15381 6483
-15381 5 0 368 174 807 386 752 364 798 388 790 408 -4 12 -3060 7327 -6791
16256 -3730 8929 -6782 16240 -6782 16245 1 6 490 1112 1088 2458 597 1347
1084 2454 1082 2460 -6 14 -1553 794 -1559 787 -3 -3 -362 -691 -798 -1530
-436 -839 -795 -1528 -799 -1532 -3 -3 -393 684 -866 1528 -473 844 -864 1534
-868 1534 -16 0 -1719 -845 -1723 -855 -3 -6 561 -1090 1253 -2410 691 -1320
1261 -2411 1266 -2425 8 -22 -407 -976 -3023 -6950 -1667 -3809 -3035 -6928
-3039 -6933 -7 -7 -6114 13844 -6114 13867 0 6 449 1098 997 2426 549 1328
1002 2424 1006 2435 7 18 -63 58 -760 433 -422 226 -772 412 -776 412 -5 0
-331 -700 -724 -1556 -393 -855 -717 -1557 -720 -1559 -3 -1 -296 697 -652
1554 -382 921 -652 1557 -660 1558 -7 0 -386 -190 -843 -423z"/>
</g>
</svg>
